<svg width="139" height="140" fill="none" xmlns="http://www.w3.org/2000/svg"><circle opacity=".05" cx="69.5" cy="69.5" r="69.5" fill="#fff"/><g filter="url(#filter0_d_2090_2)"><circle cx="69" cy="70" r="50" fill="url(#paint0_linear_2090_2)" shape-rendering="crispEdges"/></g><path d="M70 51.8c-6.856 0-12.606 4.825-14.05 11.25.147-.016.3-.05.45-.05.41 0 .803.084 1.175.2 1.356-5.61 6.403-9.8 12.425-9.8 6.019 0 11.069 4.19 12.425 9.8.372-.116.763-.2 1.175-.2.15 0 .303.034.45.05C82.606 56.625 76.853 51.8 70 51.8zM56.4 64.6A2.405 2.405 0 0054 67v12c0 1.322 1.078 2.4 2.4 2.4 1.322 0 2.4-1.078 2.4-2.4V67c0-1.322-1.078-2.4-2.4-2.4zm27.2 0a2.405 2.405 0 00-2.4 2.4v12c0 1.322 1.078 2.4 2.4 2.4 1.322 0 2.4-1.078 2.4-2.4V67c0-1.322-1.078-2.4-2.4-2.4zm-31.2 2.5C50.956 68.26 50 70.434 50 73c0 2.566.956 4.74 2.4 5.9V67.1zm35.2 0v11.8c1.444-1.16 2.4-3.334 2.4-5.9 0-2.566-.956-4.74-2.4-5.9zm-5.125 15.725c-.706 2.172-2.54 3.375-5.275 3.375h-.875c.053.26.075.525.075.8s-.022.54-.075.8h.875c3.594 0 6.081-1.806 6.9-4.85-.169.022-.328.05-.5.05-.394 0-.766-.069-1.125-.175zM68.4 84.6A2.405 2.405 0 0066 87c0 1.322 1.078 2.4 2.4 2.4h4c1.322 0 2.4-1.078 2.4-2.4 0-1.322-1.078-2.4-2.4-2.4h-4z" fill="#fff"/><defs><linearGradient id="paint0_linear_2090_2" x1="69" y1="20" x2="69" y2="120" gradientUnits="userSpaceOnUse"><stop stop-color="#03E1FF" stop-opacity=".66"/><stop offset="1" stop-color="#13CDC2"/></linearGradient><filter id="filter0_d_2090_2" x="6" y="14" width="126" height="126" filterUnits="userSpaceOnUse" color-interpolation-filters="sRGB"><feFlood flood-opacity="0" result="BackgroundImageFix"/><feColorMatrix in="SourceAlpha" values="0 0 0 0 0 0 0 0 0 0 0 0 0 0 0 0 0 0 127 0" result="hardAlpha"/><feMorphology radius="7" in="SourceAlpha" result="effect1_dropShadow_2090_2"/><feOffset dy="7"/><feGaussianBlur stdDeviation="10"/><feComposite in2="hardAlpha" operator="out"/><feColorMatrix values="0 0 0 0 0 0 0 0 0 0.88 0 0 0 0 1 0 0 0 1 0"/><feBlend in2="BackgroundImageFix" result="effect1_dropShadow_2090_2"/><feBlend in="SourceGraphic" in2="effect1_dropShadow_2090_2" result="shape"/></filter></defs></svg>