<svg width="37" height="37" viewBox="0 0 37 37" fill="none" xmlns="http://www.w3.org/2000/svg">
<path d="M25.7475 34C25.7372 34 25.7269 34 25.7166 34C20.7628 33.8378 14.9593 29.0364 10.9607 25.0357C6.95697 21.035 2.15505 15.2296 2.00056 10.2995C1.94392 8.56941 6.18969 5.49292 6.23346 5.46203C7.33546 4.69484 8.55847 4.96773 9.06055 5.66284C9.40041 6.13397 12.6189 11.01 12.969 11.5635C13.3321 12.1376 13.278 12.9923 12.8248 13.8496C12.5751 14.3259 11.746 15.7831 11.3572 16.4627C11.7769 17.06 12.8866 18.5249 15.1782 20.8162C17.4723 23.1074 18.9347 24.2196 19.5347 24.6392C20.2144 24.2505 21.6717 23.4215 22.148 23.1718C22.9926 22.7238 23.8422 22.6672 24.4215 23.0225C25.0137 23.3855 29.8775 26.619 30.3255 26.9305C30.7014 27.1957 30.9434 27.6488 30.9923 28.1766C31.0387 28.7095 30.8739 29.2733 30.5314 29.765C30.5031 29.8062 27.4623 34 25.7475 34Z" fill="url(#paint0_linear_1666_14)"/>
<defs>
<linearGradient id="paint0_linear_1666_14" x1="34.718" y1="5" x2="1.98709" y2="33.9983" gradientUnits="userSpaceOnUse">
<stop offset="0.25" stop-color="#3B768F"/>
<stop offset="0.536458" stop-color="#3EC6FF"/>
<stop offset="0.817708" stop-color="#3B768F"/>
</linearGradient>
</defs>
</svg>
