<svg width="43" height="43" viewBox="0 0 43 43" fill="none" xmlns="http://www.w3.org/2000/svg">
<path d="M21.4998 4.3C12.0011 4.3 4.2998 12.0013 4.2998 21.5C4.2998 24.7267 5.20616 27.7351 6.75215 30.3156L4.45378 38.7L13.0174 36.452C15.5219 37.8759 18.4131 38.7 21.4998 38.7C30.9985 38.7 38.6998 30.9987 38.6998 21.5C38.6998 12.0013 30.9985 4.3 21.4998 4.3ZM15.6125 13.4767C15.892 13.4767 16.1792 13.475 16.4272 13.4879C16.7339 13.4951 17.0677 13.5175 17.3874 14.2242C17.7672 15.0641 18.5943 17.1712 18.7003 17.3848C18.8064 17.5983 18.8816 17.8499 18.7339 18.1294C18.5935 18.4161 18.5204 18.5896 18.314 18.8433C18.1004 19.0898 17.8664 19.396 17.6729 19.5824C17.4594 19.7959 17.2388 20.0301 17.4854 20.4558C17.7319 20.8815 18.5881 22.277 19.8537 23.4036C21.4805 24.857 22.8531 25.3037 23.2803 25.5173C23.7074 25.7308 23.9548 25.6975 24.2013 25.4109C24.455 25.1314 25.2668 24.1723 25.5535 23.7452C25.833 23.318 26.1183 23.392 26.5053 23.5324C26.898 23.6729 28.9924 24.7046 29.4195 24.9182C29.8467 25.1317 30.1267 25.2374 30.2342 25.4109C30.3445 25.59 30.3447 26.443 29.9906 27.4377C29.6366 28.431 27.8981 29.3916 27.1184 29.4589C26.3315 29.532 25.5971 29.8126 22.0037 28.3979C17.6693 26.6908 14.9358 22.2514 14.7223 21.9647C14.5087 21.6852 12.9866 19.6566 12.9866 17.5639C12.9866 15.4641 14.0875 14.4357 14.4731 14.0086C14.8658 13.5815 15.3258 13.4767 15.6125 13.4767Z" fill="url(#paint0_linear_1661_48)"/>
<defs>
<linearGradient id="paint0_linear_1661_48" x1="43.1101" y1="4.3" x2="4.28449" y2="38.698" gradientUnits="userSpaceOnUse">
<stop offset="0.25" stop-color="#3B768F"/>
<stop offset="0.536458" stop-color="#3EC6FF"/>
<stop offset="0.817708" stop-color="#3B768F"/>
</linearGradient>
</defs>
</svg>
