<svg width="139" height="139" viewBox="0 0 139 139" fill="none" xmlns="http://www.w3.org/2000/svg">
<circle opacity="0.07" cx="69.5" cy="69.5" r="69.5" fill="white"/>
<g filter="url(#filter0_d_2051_6)">
<circle cx="69" cy="70" r="40" fill="url(#paint0_linear_2051_6)" shape-rendering="crispEdges"/>
</g>
<path d="M69.7071 55.2929C69.3166 54.9024 68.6834 54.9024 68.2929 55.2929L61.9289 61.6569C61.5384 62.0474 61.5384 62.6805 61.9289 63.0711C62.3195 63.4616 62.9526 63.4616 63.3431 63.0711L69 57.4142L74.6569 63.0711C75.0474 63.4616 75.6805 63.4616 76.0711 63.0711C76.4616 62.6805 76.4616 62.0474 76.0711 61.6569L69.7071 55.2929ZM70 85L70 56L68 56L68 85L70 85Z" fill="#e9ec4a"/>
<defs>
<filter id="filter0_d_2051_6" x="16" y="24" width="106" height="106" filterUnits="userSpaceOnUse" color-interpolation-filters="sRGB">
<feFlood flood-opacity="0" result="BackgroundImageFix"/>
<feColorMatrix in="SourceAlpha" type="matrix" values="0 0 0 0 0 0 0 0 0 0 0 0 0 0 0 0 0 0 127 0" result="hardAlpha"/>
<feMorphology radius="7" operator="erode" in="SourceAlpha" result="effect1_dropShadow_2051_6"/>
<feOffset dy="7"/>
<feGaussianBlur stdDeviation="10"/>
<feComposite in2="hardAlpha" operator="out"/>
<feColorMatrix type="matrix" values="0 0 0 0 0 0 0 0 0 0.88 0 0 0 0 1 0 0 0 1 0"/>
<feBlend mode="normal" in2="BackgroundImageFix" result="effect1_dropShadow_2051_6"/>
<feBlend mode="normal" in="SourceGraphic" in2="effect1_dropShadow_2051_6" result="shape"/>
</filter>
<linearGradient id="paint0_linear_2051_6" x1="69" y1="30" x2="69" y2="110" gradientUnits="userSpaceOnUse">
<stop stop-color="#03ff10" stop-opacity="0.66"/>
<stop offset="1" stop-color="#13CDC2"/>
</linearGradient>
</defs>
</svg>
