<svg width="23" height="23" viewBox="0 0 23 23" fill="none" xmlns="http://www.w3.org/2000/svg">
<path d="M4.91953 0.494364C4.53477 0.463114 4.10703 0.574443 3.7125 0.851786C3.36485 1.09397 2.61485 1.68968 1.91367 2.36351C1.56406 2.69944 1.23008 3.04905 0.972268 3.3928C0.712502 3.73655 0.48594 4.05101 0.499612 4.50804C0.513284 4.91819 0.554299 6.13108 1.42735 7.99046C2.30039 9.84788 3.99375 12.3967 7.29649 15.7014C10.6012 19.0061 13.15 20.6994 15.0074 21.5725C16.8648 22.4455 18.0797 22.4866 18.4898 22.5002C18.9449 22.5139 19.2594 22.2873 19.6031 22.0276C19.9469 21.7678 20.2965 21.4358 20.6324 21.0862C21.3043 20.385 21.9 19.635 22.1422 19.2873C22.6949 18.5002 22.6031 17.5705 21.9879 17.1389C21.6012 16.8674 18.0445 14.5002 17.5094 14.1721C16.9664 13.8401 16.3414 13.9905 15.7828 14.2854C15.3434 14.5178 14.1539 15.1994 13.8141 15.3948C13.5582 15.2326 12.5875 14.5862 10.4996 12.4983C8.40977 10.4104 7.76524 9.43968 7.60313 9.18382C7.79844 8.84397 8.47813 7.66038 8.7125 7.21311C9.00547 6.65647 9.16953 6.02561 8.81992 5.47874C8.67344 5.24632 8.00742 4.23265 7.33555 3.21507C6.66172 2.19749 6.02305 1.23265 5.85703 1.00218V1.00022C5.64024 0.701396 5.30235 0.525614 4.91953 0.494364ZM4.82774 1.51585C4.96446 1.53343 5.04649 1.58811 5.04649 1.58811C5.12656 1.69944 5.82774 2.75022 6.49961 3.76585C7.17149 4.78343 7.85703 5.8264 7.97617 6.01585C7.99571 6.04515 8.02305 6.37718 7.82774 6.74632V6.74827C7.60703 7.16819 6.57774 8.96702 6.57774 8.96702L6.43516 9.21897L6.58164 9.46897C6.58164 9.46897 7.34922 10.7639 9.79063 13.2053C12.234 15.6467 13.5289 16.4162 13.5289 16.4162L13.7789 16.5627L14.0309 16.4201C14.0309 16.4201 15.8258 15.3928 16.2496 15.1701C16.6188 14.9768 16.9508 15.0022 16.9898 15.0256C17.3356 15.2385 21.1773 17.7912 21.4137 17.9573C21.4215 17.9631 21.6305 18.2795 21.3258 18.7131H21.3238C21.1402 18.9768 20.5387 19.7405 19.9117 20.3928C19.5973 20.719 19.275 21.0237 19.0016 21.2287C18.7281 21.4338 18.484 21.4983 18.5231 21.5002C18.0973 21.4866 17.1578 21.4768 15.4332 20.6662C13.7086 19.8576 11.2477 18.2385 8.00352 14.9924C4.76133 11.7502 3.14219 9.28929 2.33164 7.56272C1.52305 5.83811 1.51328 4.89866 1.49961 4.47483C1.50156 4.5139 1.56602 4.2678 1.7711 3.99436C1.97617 3.72093 2.27891 3.39671 2.60508 3.08226C3.25938 2.4553 4.0211 1.85374 4.28477 1.67015V1.6721C4.50156 1.51976 4.69102 1.50022 4.82774 1.51585Z" fill="url(#paint0_linear_177_2233)"/>
<defs>
<linearGradient id="paint0_linear_177_2233" x1="11.5034" y1="0.489258" x2="11.5034" y2="22.5008" gradientUnits="userSpaceOnUse">
<stop stop-color="#4ABCEC"/>
<stop offset="1" stop-color="#4A8BEC"/>
</linearGradient>
</defs>
</svg>
