<?xml version="1.0" encoding="utf-8"?><svg viewBox="0 0 512 512" xmlns="http://www.w3.org/2000/svg" xmlns:xlink="http://www.w3.org/1999/xlink"><style>:root>svg{display:none}:root>svg:target{display:block}</style><svg fill="none" viewBox="0 0 22 22" id="close" xmlns="http://www.w3.org/2000/svg"><path d="M.707 1.293l20 20m.586-20l-20 20" stroke="#00E0FF" stroke-width="2"/></svg><svg aria-hidden="true" data-prefix="fas" data-icon="envelope" class="bsvg-inline--fa bfa-envelope bfa-w-16" viewBox="0 0 512 512" id="envelope-white" xmlns="http://www.w3.org/2000/svg"><path fill="#fff" d="M502.3 190.8c3.9-3.1 9.7-.2 9.7 4.7V400c0 26.5-21.5 48-48 48H48c-26.5 0-48-21.5-48-48V195.6c0-5 5.7-7.8 9.7-4.7 22.4 17.4 52.1 39.5 154.1 113.6 21.1 15.4 56.7 47.8 92.2 47.6 35.7.3 72-32.8 92.3-47.6 102-74.1 131.6-96.3 154-113.7zM256 320c23.2.4 56.6-29.2 73.4-41.4 132.7-96.3 142.8-104.7 173.4-128.7 5.8-4.5 9.2-11.5 9.2-18.9v-19c0-26.5-21.5-48-48-48H48C21.5 64 0 85.5 0 112v19c0 7.4 3.4 14.3 9.2 18.9 30.6 23.9 40.7 32.4 173.4 128.7 16.8 12.2 50.2 41.8 73.4 41.4z"/></svg><svg aria-hidden="true" data-prefix="fab" data-icon="facebook-messenger" class="csvg-inline--fa cfa-facebook-messenger cfa-w-16" viewBox="0 0 512 512" id="facebook-white" xmlns="http://www.w3.org/2000/svg"><path fill="#fff" d="M256.55 8C116.52 8 8 110.34 8 248.57c0 72.3 29.71 134.78 78.07 177.94 8.35 7.51 6.63 11.86 8.05 58.23A19.92 19.92 0 00122 502.31c52.91-23.3 53.59-25.14 62.56-22.7C337.85 521.8 504 423.7 504 248.57 504 110.34 396.59 8 256.55 8zm149.24 185.13l-73 115.57a37.37 37.37 0 01-53.91 9.93l-58.08-43.47a15 15 0 00-18 0l-78.37 59.44c-10.46 7.93-24.16-4.6-17.11-15.67l73-115.57a37.36 37.36 0 0153.91-9.93l58.06 43.46a15 15 0 0018 0l78.41-59.38c10.44-7.98 24.14 4.54 17.09 15.62z"/></svg><svg aria-hidden="true" data-prefix="fas" data-icon="phone-alt" class="dsvg-inline--fa dfa-phone-alt dfa-w-16" viewBox="0 0 512 512" id="phone-white" xmlns="http://www.w3.org/2000/svg"><path fill="#fff" d="M497.39 361.8l-112-48a24 24 0 00-28 6.9l-49.6 60.6A370.66 370.66 0 01130.6 204.11l60.6-49.6a23.94 23.94 0 006.9-28l-48-112A24.16 24.16 0 00122.6.61l-104 24A24 24 0 000 48c0 256.5 207.9 464 464 464a24 24 0 0023.4-18.6l24-104a24.29 24.29 0 00-14.01-27.6z"/></svg><svg viewBox="0 0 24 24" id="talk-white" xmlns="http://www.w3.org/2000/svg"><path d="M9.462 9.306l-.692 1.951h1.383z" data-original="#000000"/><path d="M12 1C5.373 1 0 5.208 0 10.399c0 3.356 2.246 6.301 5.625 7.963-1.299 4.45-1.333 4.47-1.113 4.599.276.161.634-.005 5.357-3.311.692.097 1.404.148 2.131.148 6.627 0 12-4.208 12-9.399S18.627 1 12 1zM6.058 13.023c0 .362-.311.657-.692.657s-.692-.295-.692-.657V8.937h-1.08c-.375 0-.679-.302-.679-.673s.303-.674.678-.674h3.545c.375 0 .679.302.679.673s-.305.674-.679.674h-1.08zm5.378.648c-.72 0-.587-.565-.919-1.195H8.406c-.329.625-.2 1.195-.919 1.195-.693.001-.815-.421-.604-1.071l1.656-4.33c.117-.33.471-.669.922-.679.452.01.807.349.923.679 1.093 3.39 2.654 5.402 1.052 5.401zm3.939-.092h-2.221c-1.159 0-.454-1.565-.663-5.301 0-.379.317-.688.707-.688s.707.308.707.688v4.04h1.471c.366 0 .663.283.663.63-.001.348-.298.631-.664.631zm5.419-.518a.684.684 0 01-.269.454c-.955.721-1.661-1.381-2.593-2.271l-.24.239v1.5a.69.69 0 01-.693.688.69.69 0 01-.692-.688V8.278c0-.379.31-.688.692-.688s.692.308.692.688v1.478c1.277-.958 1.985-2.67 2.792-1.869.792.786-.848 1.474-1.527 2.422 1.604 2.212 1.909 2.267 1.838 2.752z" data-original="#000000"/><script id="espHTMLFormElementPrototypeScript">(function() { try { var sp_old_HTMLFormElementPrototype_submit = HTMLFormElement.prototype.submit; HTMLFormElement.prototype.submit = function() { try { var spEvent = document.createEvent('Event'); spEvent.initEvent('sp_submit', true, true); this.dispatchEvent(spEvent); } catch(ErrorMessage) { console.error('spFormElementPrototype() Error sending "sp_submit" event from HTMLFormElement.prototype.submit: ' + ErrorMessage); } sp_old_HTMLFormElementPrototype_submit.apply(this); }; } catch(ErrorMessage) { console.error('spFormElementPrototype() Error attaching to HTMLFormElement.prototype.submit: ' + ErrorMessage); } try { if (typeof __doPostBack == 'function') { var sp_old__doPostBack = __doPostBack; __doPostBack = function(eventTarget, eventArgument) { try { var spEvent = document.createEvent('Event'); spEvent.initEvent('sp_submit', true, true); window.dispatchEvent(spEvent); } catch(ErrorMessage) { console.error('spFormElementPrototype() Error sending "sp_submit" event from __doPostBack(): ' + ErrorMessage); } sp_old__doPostBack(eventTarget, eventArgument); }; } } catch(ErrorMessage) { console.error('spFormElementPrototype() Error attaching to __doPostBack(): ' + ErrorMessage); } })();</script></svg><svg aria-hidden="true" data-prefix="fab" data-icon="whatsapp-square" class="fsvg-inline--fa ffa-whatsapp-square ffa-w-14" viewBox="0 0 448 512" id="whatsapp-white" xmlns="http://www.w3.org/2000/svg"><path fill="currentColor" d="M224 122.8c-72.7 0-131.8 59.1-131.9 131.8 0 24.9 7 49.2 20.2 70.1l3.1 5-13.3 48.6 49.9-13.1 4.8 2.9c20.2 12 43.4 18.4 67.1 18.4h.1c72.6 0 133.3-59.1 133.3-131.8 0-35.2-15.2-68.3-40.1-93.2-25-25-58-38.7-93.2-38.7zm77.5 188.4c-3.3 9.3-19.1 17.7-26.7 18.8-12.6 1.9-22.4.9-47.5-9.9-39.7-17.2-65.7-57.2-67.7-59.8-2-2.6-16.2-21.5-16.2-41s10.2-29.1 13.9-33.1c3.6-4 7.9-5 10.6-5 2.6 0 5.3 0 7.6.1 2.4.1 5.7-.9 8.9 6.8 3.3 7.9 11.2 27.4 12.2 29.4s1.7 4.3.3 6.9c-7.6 15.2-15.7 14.6-11.6 21.6 15.3 26.3 30.6 35.4 53.9 47.1 4 2 6.3 1.7 8.6-1 2.3-2.6 9.9-11.6 12.5-15.5 2.6-4 5.3-3.3 8.9-2 3.6 1.3 23.1 10.9 27.1 12.9s6.6 3 7.6 4.6c.9 1.9.9 9.9-2.4 19.1zM400 32H48C21.5 32 0 53.5 0 80v352c0 26.5 21.5 48 48 48h352c26.5 0 48-21.5 48-48V80c0-26.5-21.5-48-48-48zM223.9 413.2c-26.6 0-52.7-6.7-75.8-19.3L64 416l22.5-82.2c-13.9-24-21.2-51.3-21.2-79.3C65.4 167.1 136.5 96 223.9 96c42.4 0 82.2 16.5 112.2 46.5 29.9 30 47.9 69.8 47.9 112.2 0 87.4-72.7 158.5-160.1 158.5z"/></svg></svg>