<svg class="sprite__svg-causes"><symbol id="one" viewBox="0 0 40 42" xmlns="http://www.w3.org/2000/svg"><path d="M22.094 0C12.223 0 8.664 7.566 11.5 13.969c-.316.21-.95.93-.844 2.187.317 2.313 1.258 2.969 1.781 2.969.211 2.203 1.672 4.707 2.407 5.125 0 1.574.117 1.258-.094 2.938a3.816 3.816 0 01-.969 1.53L19.094 31h1.812l5.313-2.125c-.485-.453-.856-.988-1.063-1.594-.105-1.68-.125-1.437-.125-2.906.735-.422 2.121-3.055 2.438-5.156.629 0 1.57-.63 1.781-2.938.105-1.261-.316-2.113-.844-2.218 1.89-2.415 1.575-11.97-5.25-11.97L22.094 0zm-10.25 30.063C7.473 32.367 0 33.438 0 41c0 0 0 1 1 1h16l2-7-.906-2.25-6.25-2.688zm16.406.156l-6.344 2.531L21 35l2 7h16c1.031 0 1-1 1-1 0-7.477-7.324-8.563-11.75-10.781z" fill="url(#paint0_linear_177_1781)"/></symbol><defs><linearGradient id="paint0_linear_177_1781" x1="45.128" y1="0" x2="-1.942" y2="39.717" gradientUnits="userSpaceOnUse"><stop offset=".25" stop-color="#3B768F"/><stop offset=".536" stop-color="#3EC6FF"/><stop offset=".818" stop-color="#3B768F"/></linearGradient></defs><symbol id="two" viewBox="0 0 44 44" xmlns="http://www.w3.org/2000/svg"><path d="M3 0C1.346 0 0 1.346 0 3v10c0 1.654 1.346 3 3 3h3v2a1 1 0 102 0v-2h5c1.654 0 3-1.346 3-3V9h5a1 1 0 100-2h-5V3c0-1.654-1.346-3-3-3H3zm28 0c-1.654 0-3 1.346-3 3v4h-3a1 1 0 100 2h3v4c0 1.654 1.346 3 3 3h4v5a1 1 0 102 0v-5h4c1.654 0 3-1.346 3-3V3c0-1.654-1.346-3-3-3H31zM6.984 20.986A1 1 0 006 22v6H3c-1.654 0-3 1.346-3 3v10c0 1.654 1.346 3 3 3h10c1.654 0 3-1.346 3-3v-4h3a1 1 0 100-2h-3v-4c0-1.654-1.346-3-3-3H8v-6a1 1 0 00-1.016-1.014zm29 3A1 1 0 0035 25v2h-4c-1.654 0-3 1.346-3 3v5h-5a1 1 0 100 2h5v3c0 1.654 1.346 3 3 3h10c1.654 0 3-1.346 3-3V30c0-1.654-1.346-3-3-3h-4v-2a1 1 0 00-1.016-1.014z" fill="url(#paint0_linear_177_1787)"/></symbol><defs><linearGradient id="paint0_linear_177_1787" x1="49.641" y1="0" x2="-.02" y2="43.998" gradientUnits="userSpaceOnUse"><stop offset=".25" stop-color="#3B768F"/><stop offset=".536" stop-color="#3EC6FF"/><stop offset=".818" stop-color="#3B768F"/></linearGradient></defs><symbol id="three" viewBox="0 0 42 42" xmlns="http://www.w3.org/2000/svg"><path d="M1 0C.45 0 0 .45 0 1v10c0 .55.45 1 1 1h40c.55 0 1-.45 1-1V1c0-.55-.45-1-1-1H1zm5 5c.55 0 1 .45 1 1s-.45 1-1 1-1-.45-1-1 .45-1 1-1zm4 0c.55 0 1 .45 1 1s-.45 1-1 1-1-.45-1-1 .45-1 1-1zm4 0c.55 0 1 .45 1 1s-.45 1-1 1-1-.45-1-1 .45-1 1-1zM0 15v26a1 1 0 001 1h40a1 1 0 001-1V15h-2v25H2V15H0zm6 0a1 1 0 00-1 1v20a1 1 0 001 1h13a1 1 0 001-1V16a1 1 0 00-1-1H6zm17 0v2h14v-2H23zm0 5v2h14v-2H23zm0 5v2h14v-2H23zm0 5v2h14v-2H23zm0 5v2h14v-2H23z" fill="url(#paint0_linear_177_1793)"/></symbol><defs><linearGradient id="paint0_linear_177_1793" x1="47.385" y1="0" x2="-.019" y2="41.998" gradientUnits="userSpaceOnUse"><stop offset=".25" stop-color="#3B768F"/><stop offset=".536" stop-color="#3EC6FF"/><stop offset=".818" stop-color="#3B768F"/></linearGradient></defs><symbol id="four" viewBox="0 0 40 50" xmlns="http://www.w3.org/2000/svg"><path d="M12 0c-.55 0-1 .45-1 1v8c0 .55.45 1 1 1h16a1 1 0 001-1V1a1 1 0 00-1-1H12zM3 2C1.348 2 0 3.348 0 5v42c0 1.652 1.348 3 3 3h34c1.652 0 3-1.348 3-3V5c0-1.652-1.348-3-3-3h-6v4h5v40H4V6h5V2H3zm3 6v36h28V8h-3v1c0 1.652-1.348 3-3 3H12c-1.652 0-3-1.348-3-3V8H6zm4 9h8v8h-8v-8zm2 2v4h4v-4h-4zm9 1h9v2h-9v-2zM10 30h8v8h-8v-8zm2 2v4h4v-4h-4zm1 1h2v2h-2v-2zm8 0h9v2h-9v-2z" fill="url(#paint0_linear_177_1799)"/></symbol><defs><linearGradient id="paint0_linear_177_1799" x1="45.128" y1="0" x2="-8.509" y2="38.017" gradientUnits="userSpaceOnUse"><stop offset=".25" stop-color="#3B768F"/><stop offset=".536" stop-color="#3EC6FF"/><stop offset=".818" stop-color="#3B768F"/></linearGradient></defs><symbol id="five" viewBox="0 0 50 38" xmlns="http://www.w3.org/2000/svg"><path d="M26.906 0c-8.867 0-12.16 6.852-9.625 12.656-.316.211-.824.871-.718 2.031.21 2.11 1.16 2.614 1.687 2.72.21 2.003 1.48 4.34 2.219 4.655 0 1.372-.02 2.52-.125 4C18.727 30.31 8.39 29.325 7.062 36.938c-.058.333.286 1.063.97 1.063H42c1.016 0 .996-.75.938-1.094-1.352-7.582-11.665-6.601-13.282-10.843a54.05 54.05 0 01-.125-4c.739-.317 1.914-2.758 2.125-4.657.528 0 1.371-.636 1.688-2.75.105-1.16-.328-1.894-.75-2 1.687-2.11 1.383-10.75-4.844-10.75L26.906 0zm-11.75 5c-6.676.113-9.601 5.426-7.594 9.969-.214.105-.636.664-.53 1.625.214 1.71.85 2.125 1.28 2.125.211 1.601 1.157 3.398 1.688 3.718 0 1.067.012 1.036-.094 2.313C9.04 27.484 0 27.281 0 34c0 0 0 1 1 1h4.531c1.528-4.32 5.68-5.984 8.813-7.219 1.726-.68 3.496-1.367 4.031-2.218.059-.93.09-1.72.094-2.594-.95-1.086-1.657-2.778-2-4.219-.813-.602-1.692-1.758-1.907-3.906-.093-1.02.122-1.867.47-2.531-.794-2.465-.743-5.04.124-7.313zM38 5c-.957 0-2.086.078-3.156.25.8 2.348.832 5.152.125 7.156.312.688.457 1.524.375 2.438l-.032.062v.063c-.296 1.965-1.019 3.16-1.874 3.812-.325 1.352-.985 3.059-1.907 4.157a46.1 46.1 0 00.094 2.625c.535.851 2.309 1.539 4.031 2.218 3.13 1.23 7.282 2.899 8.813 7.219H49c1 0 1-.969 1-.969.004-7.734-8.559-5.902-9.844-9.437-.11-1.18-.125-1.07-.125-2.25.535-.32 1.52-2.121 1.625-3.625.43 0 1.067-.442 1.282-2.157.105-.855-.211-1.488-.532-1.593 1.29-1.715 1.078-8.469-3.75-8.469L38 5z" fill="url(#paint0_linear_177_1805)"/></symbol><defs><linearGradient id="paint0_linear_177_1805" x1="56.41" y1="0" x2="13.71" y2="49.778" gradientUnits="userSpaceOnUse"><stop offset=".25" stop-color="#3B768F"/><stop offset=".536" stop-color="#3EC6FF"/><stop offset=".818" stop-color="#3B768F"/></linearGradient></defs><symbol id="six" viewBox="0 0 50 50" xmlns="http://www.w3.org/2000/svg"><path d="M49.996 27.941c-.21-3.558-2.602-4.691-4.348-5.515-.91-.434-1.699-.805-1.984-1.383-.043-.563-.039-1.016-.035-1.531v-.078c.5-.582.922-1.532 1.121-2.391.441-.305.902-.906 1.05-2.113.071-.614-.07-1.11-.296-1.48.344-1.255.887-3.985-.258-5.825-.5-.809-1.27-1.348-2.242-1.578C42.383 5.367 41.316 5 39.934 5h-.004c-2.145.04-3.727.71-4.703 1.996-1.11 1.465-1.348 3.621-.711 6.422-.239.375-.391.887-.317 1.516.149 1.21.614 1.812 1.055 2.113.207.851.64 1.805 1.148 2.39v.079c.004.511.008.965-.035 1.523-.136.25-.418.473-.816.688-.938-2.547-3.125-3.555-4.778-4.317-.98-.45-1.832-.844-2.109-1.37-.043-.56-.039-1.009-.035-1.524l.004-.082c.496-.582.922-1.528 1.12-2.391.438-.3.903-.906 1.048-2.113.074-.61-.067-1.11-.293-1.48.34-1.255.883-3.985-.258-5.821-.504-.809-1.273-1.352-2.242-1.582C27.516.512 26.613.016 24.934.016c-2.149.043-3.735.71-4.707 1.996-1.11 1.46-1.344 3.613-.707 6.406-.239.375-.391.887-.317 1.516.145 1.21.61 1.812 1.055 2.113.203.851.64 1.805 1.144 2.39v.083c.004.515.008.964-.035 1.52-.277.526-1.133.92-2.117 1.37-1.66.762-3.855 1.77-4.797 4.317-.398-.215-.683-.438-.816-.688a16.718 16.718 0 01-.035-1.535v-.067c.503-.585.941-1.539 1.144-2.39.441-.305.906-.906 1.055-2.117.074-.63-.078-1.14-.317-1.516.637-2.797.399-4.957-.71-6.418C13.796 5.711 12.213 5.04 10.05 5c-1.371 0-2.434.367-3.055 1.047-.973.23-1.742.773-2.246 1.582-1.14 1.836-.598 4.566-.254 5.82-.226.371-.367.871-.297 1.485.149 1.207.61 1.808 1.051 2.113.2.86.621 1.805 1.121 2.387v.082c.004.515.008.968-.035 1.53-.285.575-1.078.95-1.984 1.38C2.605 23.25.215 24.383 0 28v11c0 .066.008.133.02.2.058.292 1.527 6.816 11.503 10.09 0 0 .165.144 1.457.296a31.665 31.665 0 01.036-1.902c.375-3.653 3.316-4.844 5.48-5.723 1.18-.477 2.293-.93 2.625-1.578.05-.617.043-1.117.04-1.684v-.113c-.556-.629-1.04-1.688-1.259-2.625-.468-.309-.976-.945-1.133-2.258-.081-.676.09-1.223.348-1.617-.699-3.035-.449-5.371.75-6.95C20.91 23.763 22.61 23.04 24.914 23c1.496 0 2.637.395 3.293 1.129 1.047.242 1.879.82 2.414 1.683 1.235 1.989.629 4.97.258 6.305.25.395.41.93.332 1.59-.16 1.309-.664 1.945-1.137 2.254-.215.937-.683 1.992-1.226 2.617l-.004.121c-.004.567-.008 1.063.039 1.684.336.652 1.445 1.105 2.617 1.578 2.168.883 5.117 2.082 5.469 5.723.043.53.031 1.539.023 1.976.942-.105 1-.2 1-.2 10.434-3.218 11.926-9.956 11.989-10.26.011-.067.019-.134.019-.2l-.004-11.059z" fill="url(#paint0_linear_177_1811)"/></symbol><defs><linearGradient id="paint0_linear_177_1811" x1="56.41" y1=".016" x2=".332" y2="50.054" gradientUnits="userSpaceOnUse"><stop offset=".25" stop-color="#3B768F"/><stop offset=".536" stop-color="#3EC6FF"/><stop offset=".818" stop-color="#3B768F"/></linearGradient></defs><symbol id="seven" viewBox="0 0 44 44" xmlns="http://www.w3.org/2000/svg"><path d="M16 0v1h-4v43h4v-1h1v1h1v-1h1v1h1v-1h1v1h1v-1h1v1h1v-1h1v1h1v-1h1v1h4V1h-4V0H16zm-6 4.168L0 8.332V44h4v-2h1v2h1v-2h1v2h1v-2h1v2h1V4.168zM16 5h1v1h-1V5zm2 0h1v1h-1V5zm2 0h1v1h-1V5zm2 0h1v1h-1V5zm2 0h1v1h-1V5zm2 0h1v1h-1V5zM16 7h1v1h-1V7zm2 0h1v1h-1V7zm2 0h1v1h-1V7zm2 0h1v1h-1V7zm2 0h1v1h-1V7zm2 0h1v1h-1V7zM9 8.734V11H8V9.121l1-.387zM16 9h1v1h-1V9zm2 0h1v1h-1V9zm2 0h1v1h-1V9zm2 0h1v1h-1V9zm2 0h1v1h-1V9zm2 0h1v1h-1V9zm7 0v4h1v1h-1v1h1v1h-1v1h1v1h-1v1h1v1h-1v1h1v1h-1v1h1v1h-1v1h1v1h-1v1h1v1h-1v1h1v1h-1v1h1v1h-1v1h1v1h-1v1h1v1h-1v1h1v1h-1v1h1v1h-1v1h1v1h-1v1h1v1h1v-1h2v1h1v-1h2v1h4V9H33zM7 9.5V11H6V9.887L7 9.5zm-2 .766V11H4v-.348l1-.386zM16 11h1v1h-1v-1zm2 0h1v1h-1v-1zm2 0h1v1h-1v-1zm2 0h1v1h-1v-1zm2 0h1v1h-1v-1zm2 0h1v1h-1v-1zM4 12h1v2H4v-2zm2 0h1v2H6v-2zm2 0h1v2H8v-2zm8 1h1v1h-1v-1zm2 0h1v1h-1v-1zm2 0h1v1h-1v-1zm2 0h1v1h-1v-1zm2 0h1v1h-1v-1zm2 0h1v1h-1v-1zm9 0h2v1h-2v-1zm3 0h2v1h-2v-1zM4 15h1v2H4v-2zm2 0h1v2H6v-2zm2 0h1v2H8v-2zm8 0h1v1h-1v-1zm2 0h1v1h-1v-1zm2 0h1v1h-1v-1zm2 0h1v1h-1v-1zm2 0h1v1h-1v-1zm2 0h1v1h-1v-1zm9 0h2v1h-2v-1zm3 0h2v1h-2v-1zm-22 2h1v1h-1v-1zm2 0h1v1h-1v-1zm2 0h1v1h-1v-1zm2 0h1v1h-1v-1zm2 0h1v1h-1v-1zm2 0h1v1h-1v-1zm9 0h2v1h-2v-1zm3 0h2v1h-2v-1zM4 18h1v2H4v-2zm2 0h1v2H6v-2zm2 0h1v2H8v-2zm8 1h1v1h-1v-1zm2 0h1v1h-1v-1zm2 0h1v1h-1v-1zm2 0h1v1h-1v-1zm2 0h1v1h-1v-1zm2 0h1v1h-1v-1zm9 0h2v1h-2v-1zm3 0h2v1h-2v-1zM4 21h1v2H4v-2zm2 0h1v2H6v-2zm2 0h1v2H8v-2zm8 0h1v1h-1v-1zm2 0h1v1h-1v-1zm2 0h1v1h-1v-1zm2 0h1v1h-1v-1zm2 0h1v1h-1v-1zm2 0h1v1h-1v-1zm9 0h2v1h-2v-1zm3 0h2v1h-2v-1zm-22 2h1v1h-1v-1zm2 0h1v1h-1v-1zm2 0h1v1h-1v-1zm2 0h1v1h-1v-1zm2 0h1v1h-1v-1zm2 0h1v1h-1v-1zm9 0h2v1h-2v-1zm3 0h2v1h-2v-1zM4 24h1v2H4v-2zm2 0h1v2H6v-2zm2 0h1v2H8v-2zm8 1h1v1h-1v-1zm2 0h1v1h-1v-1zm2 0h1v1h-1v-1zm2 0h1v1h-1v-1zm2 0h1v1h-1v-1zm2 0h1v1h-1v-1zm9 0h2v1h-2v-1zm3 0h2v1h-2v-1zM4 27h1v2H4v-2zm2 0h1v2H6v-2zm2 0h1v2H8v-2zm8 0h1v1h-1v-1zm2 0h1v1h-1v-1zm2 0h1v1h-1v-1zm2 0h1v1h-1v-1zm2 0h1v1h-1v-1zm2 0h1v1h-1v-1zm9 0h2v1h-2v-1zm3 0h2v1h-2v-1zm-22 2h1v1h-1v-1zm2 0h1v1h-1v-1zm2 0h1v1h-1v-1zm2 0h1v1h-1v-1zm2 0h1v1h-1v-1zm2 0h1v1h-1v-1zm9 0h2v1h-2v-1zm3 0h2v1h-2v-1zM4 30h1v2H4v-2zm2 0h1v2H6v-2zm2 0h1v2H8v-2zm8 1h1v1h-1v-1zm2 0h1v1h-1v-1zm2 0h1v1h-1v-1zm2 0h1v1h-1v-1zm2 0h1v1h-1v-1zm2 0h1v1h-1v-1zm9 0h2v1h-2v-1zm3 0h2v1h-2v-1zM4 33h1v2H4v-2zm2 0h1v2H6v-2zm2 0h1v2H8v-2zm8 0h1v1h-1v-1zm2 0h1v1h-1v-1zm2 0h1v1h-1v-1zm2 0h1v1h-1v-1zm2 0h1v1h-1v-1zm2 0h1v1h-1v-1zm9 0h2v1h-2v-1zm3 0h2v1h-2v-1zm-22 2h1v1h-1v-1zm2 0h1v1h-1v-1zm2 0h1v1h-1v-1zm2 0h1v1h-1v-1zm2 0h1v1h-1v-1zm2 0h1v1h-1v-1zm9 0h2v1h-2v-1zm3 0h2v1h-2v-1zM4 36h1v2H4v-2zm2 0h1v2H6v-2zm2 0h1v2H8v-2zm8 1h1v1h-1v-1zm2 0h1v1h-1v-1zm2 0h1v1h-1v-1zm2 0h1v1h-1v-1zm2 0h1v1h-1v-1zm2 0h1v1h-1v-1zm9 0h2v1h-2v-1zm3 0h2v1h-2v-1zM4 39h1v2H4v-2zm2 0h1v2H6v-2zm2 0h1v2H8v-2zm8 0h1v1h-1v-1zm2 0h1v1h-1v-1zm2 0h1v1h-1v-1zm2 0h1v1h-1v-1zm2 0h1v1h-1v-1zm2 0h1v1h-1v-1zm9 0h2v1h-2v-1zm3 0h2v1h-2v-1zm-22 2h1v1h-1v-1zm2 0h1v1h-1v-1zm2 0h1v1h-1v-1zm2 0h1v1h-1v-1zm2 0h1v1h-1v-1zm2 0h1v1h-1v-1zm9 0h2v1h-2v-1zm3 0h2v1h-2v-1z" fill="url(#paint0_linear_177_1817)"/></symbol><defs><linearGradient id="paint0_linear_177_1817" x1="49.641" y1="0" x2="-.02" y2="43.998" gradientUnits="userSpaceOnUse"><stop offset=".25" stop-color="#3B768F"/><stop offset=".536" stop-color="#3EC6FF"/><stop offset=".818" stop-color="#3B768F"/></linearGradient></defs></svg>