<svg viewBox="0 0 512 512" xmlns="http://www.w3.org/2000/svg" xmlns:xlink="http://www.w3.org/1999/xlink"><style>:root&gt;svg{display:none}:root&gt;svg:target{display:block}</style><svg fill="none" viewBox="0 0 9 9" id="calendar" xmlns="http://www.w3.org/2000/svg"><path d="M1.875 0v1.5h.75V0h-.75zm4.5 0v1.5h.75V0h-.75zm-6 1.125A.376.376 0 000 1.5v1.125C0 2.832.168 3 .375 3v6h8.25V3A.376.376 0 009 2.625V1.5a.376.376 0 00-.375-.375H7.5v.75H6v-.75H3v.75H1.5v-.75H.375zM1.125 3h6.75v5.25h-6.75V3zm.75.75v.75h.75v-.75h-.75zm1.5 0v.75h.75v-.75h-.75zm1.5 0v.75h.75v-.75h-.75zm1.5 0v.75h.75v-.75h-.75zm-4.5 1.5V6h.75v-.75h-.75zm1.5 0V6h.75v-.75h-.75zm1.5 0V6h.75v-.75h-.75zm1.5 0V6h.75v-.75h-.75zm-4.5 1.5v.75h.75v-.75h-.75zm1.5 0v.75h.75v-.75h-.75zm1.5 0v.75h.75v-.75h-.75zm1.5 0v.75h.75v-.75h-.75z" fill="#fff"/></svg><svg viewBox="0 0 33 33" id="checked-btn" xmlns="http://www.w3.org/2000/svg"><path d="M11.55 5.94c-5.642 0-10.23 4.588-10.23 10.23S5.908 26.4 11.55 26.4s10.23-4.588 10.23-10.23S17.192 5.94 11.55 5.94zm5.61 5.94a.66.66 0 01.467 1.127l-7.92 7.92a.658.658 0 01-.933 0l-3.3-3.3a.66.66 0 11.933-.934l2.833 2.834 7.454-7.454a.658.658 0 01.466-.193zm7.92 3.96a.66.66 0 100 1.32H33v-1.32h-7.92z"/><defs><linearGradient id="bpaint0_linear_177_1845" x1="37.062" y1="5.94" x2="14.916" y2="36.32" gradientUnits="userSpaceOnUse"><stop offset=".25" stop-color="#3B768F"/><stop offset=".536" stop-color="#3EC6FF"/><stop offset=".818" stop-color="#3B768F"/></linearGradient></defs></svg><svg viewBox="0 0 33 33" id="checked-btn-white" xmlns="http://www.w3.org/2000/svg"><path d="M11.55 5.94c-5.642 0-10.23 4.588-10.23 10.23S5.908 26.4 11.55 26.4s10.23-4.588 10.23-10.23S17.192 5.94 11.55 5.94zm5.61 5.94a.66.66 0 01.467 1.127l-7.92 7.92a.658.658 0 01-.933 0l-3.3-3.3a.66.66 0 11.933-.934l2.833 2.834 7.454-7.454a.658.658 0 01.466-.193zm7.92 3.96a.66.66 0 100 1.32H33v-1.32h-7.92z" fill="#fff"/><defs><linearGradient id="cpaint0_linear_177_1845" x1="37.062" y1="5.94" x2="14.916" y2="36.32" gradientUnits="userSpaceOnUse"><stop offset=".25" stop-color="#3B768F"/><stop offset=".536" stop-color="#3EC6FF"/><stop offset=".818" stop-color="#3B768F"/></linearGradient></defs></svg><svg fill="none" viewBox="0 0 22 22" id="close" xmlns="http://www.w3.org/2000/svg"><path d="M.707 1.293l20 20m.586-20l-20 20" stroke="#00E0FF" stroke-width="2"/></svg><svg viewBox="0 0 30 37" id="down" xmlns="http://www.w3.org/2000/svg"><rect x="5.5" y=".5" width="19" height="36" rx="9.5" stroke="#4A8BEC"/><g filter="url(#efilter0_d_2082_2)"><circle cx="15" cy="11" r="5"/></g><defs><filter id="efilter0_d_2082_2" x="0" y="0" width="30" height="30" filterUnits="userSpaceOnUse" color-interpolation-filters="sRGB"><feFlood flood-opacity="0" result="BackgroundImageFix"/><feColorMatrix in="SourceAlpha" values="0 0 0 0 0 0 0 0 0 0 0 0 0 0 0 0 0 0 127 0" result="hardAlpha"/><feOffset dy="4"/><feGaussianBlur stdDeviation="5"/><feComposite in2="hardAlpha" operator="out"/><feColorMatrix values="0 0 0 0 0.290196 0 0 0 0 0.849255 0 0 0 0 0.92549 0 0 0 0.75 0"/><feBlend in2="BackgroundImageFix" result="effect1_dropShadow_2082_2"/><feBlend in="SourceGraphic" in2="effect1_dropShadow_2082_2" result="shape"/></filter></defs></svg><svg aria-hidden="true" data-prefix="fas" data-icon="envelope" class="fsvg-inline--fa ffa-envelope ffa-w-16" viewBox="0 0 512 512" id="envelope-white" xmlns="http://www.w3.org/2000/svg"><path fill="#fff" d="M502.3 190.8c3.9-3.1 9.7-.2 9.7 4.7V400c0 26.5-21.5 48-48 48H48c-26.5 0-48-21.5-48-48V195.6c0-5 5.7-7.8 9.7-4.7 22.4 17.4 52.1 39.5 154.1 113.6 21.1 15.4 56.7 47.8 92.2 47.6 35.7.3 72-32.8 92.3-47.6 102-74.1 131.6-96.3 154-113.7zM256 320c23.2.4 56.6-29.2 73.4-41.4 132.7-96.3 142.8-104.7 173.4-128.7 5.8-4.5 9.2-11.5 9.2-18.9v-19c0-26.5-21.5-48-48-48H48C21.5 64 0 85.5 0 112v19c0 7.4 3.4 14.3 9.2 18.9 30.6 23.9 40.7 32.4 173.4 128.7 16.8 12.2 50.2 41.8 73.4 41.4z"/></svg><svg aria-hidden="true" data-prefix="fab" data-icon="facebook-messenger" class="gsvg-inline--fa gfa-facebook-messenger gfa-w-16" viewBox="0 0 512 512" id="facebook-white" xmlns="http://www.w3.org/2000/svg"><path fill="#fff" d="M256.55 8C116.52 8 8 110.34 8 248.57c0 72.3 29.71 134.78 78.07 177.94 8.35 7.51 6.63 11.86 8.05 58.23A19.92 19.92 0 00122 502.31c52.91-23.3 53.59-25.14 62.56-22.7C337.85 521.8 504 423.7 504 248.57 504 110.34 396.59 8 256.55 8zm149.24 185.13l-73 115.57a37.37 37.37 0 01-53.91 9.93l-58.08-43.47a15 15 0 00-18 0l-78.37 59.44c-10.46 7.93-24.16-4.6-17.11-15.67l73-115.57a37.36 37.36 0 0153.91-9.93l58.06 43.46a15 15 0 0018 0l78.41-59.38c10.44-7.98 24.14 4.54 17.09 15.62z"/></svg><svg fill="none" viewBox="0 0 25 18" id="letter" xmlns="http://www.w3.org/2000/svg"><path d="M0 0v18h25V0H0zm1 1h23v1.281c-.223.194-9.091 7.905-9.827 8.542-.646.56-1.334.678-1.673.678-.34 0-1.027-.118-1.673-.678L8.35 8.67l-.01-.013-.002.002L1 2.281V1zm0 2.603l6.541 5.686L1 14.457V3.603zm23 0v10.856l-6.555-5.158L24 3.603zM8.309 9.957c.617.537 1.722 1.498 1.864 1.62.854.74 1.766.922 2.327.922.56 0 1.473-.182 2.327-.922l1.85-1.608L24 15.732V17H1v-1.268l7.309-5.775z" fill="url(#hpaint0_linear_177_2236)"/><defs><linearGradient id="hpaint0_linear_177_2236" x1="12.5" y1="0" x2="12.5" y2="18" gradientUnits="userSpaceOnUse"><stop stop-color="#4ABCEC"/><stop offset="1" stop-color="#4A8BEC"/></linearGradient></defs></svg><svg viewBox="0 0 36 36" id="mark" xmlns="http://www.w3.org/2000/svg"><path d="M18 0C8.03 0 0 8.03 0 18s8.03 18 18 18 18-8.03 18-18c0-1.939-.276-3.876-.968-5.676l-2.218 2.215A13.95 13.95 0 0133.231 18c0 8.446-6.785 15.23-15.231 15.23A15.187 15.187 0 012.77 18C2.77 9.554 9.553 2.77 18 2.77c4.154 0 7.753 1.66 10.523 4.291l1.939-1.939C27.277 1.937 22.846 0 18 0zm15.647 6.23L18 21.879l-5.955-5.955L10.11 18 18 25.891 35.584 8.308 33.647 6.23z"/><defs><linearGradient id="ipaint0_linear_177_1932" x1="40.615" y1="0" x2="-.016" y2="35.998" gradientUnits="userSpaceOnUse"><stop offset=".25" stop-color="#3B768F"/><stop offset=".536" stop-color="#3EC6FF"/><stop offset=".818" stop-color="#3B768F"/></linearGradient></defs></svg><svg fill="none" viewBox="0 0 36 36" id="mark-white" xmlns="http://www.w3.org/2000/svg"><path d="M18 0C8.03 0 0 8.03 0 18s8.03 18 18 18 18-8.03 18-18c0-1.939-.276-3.876-.968-5.676l-2.218 2.215A13.95 13.95 0 0133.231 18c0 8.446-6.785 15.23-15.231 15.23A15.187 15.187 0 012.77 18C2.77 9.554 9.553 2.77 18 2.77c4.154 0 7.753 1.66 10.523 4.291l1.939-1.939C27.277 1.937 22.846 0 18 0zm15.647 6.23L18 21.879l-5.955-5.955L10.11 18 18 25.891 35.584 8.308 33.647 6.23z" fill="#fff"/><defs><linearGradient id="jpaint0_linear_177_1932" x1="40.615" y1="0" x2="-.016" y2="35.998" gradientUnits="userSpaceOnUse"><stop offset=".25" stop-color="#3B768F"/><stop offset=".536" stop-color="#3EC6FF"/><stop offset=".818" stop-color="#3B768F"/></linearGradient></defs></svg><svg fill="none" viewBox="0 0 40 42" id="one-icon" xmlns="http://www.w3.org/2000/svg"><path d="M22.094 0C12.223 0 8.664 7.566 11.5 13.969c-.316.21-.95.93-.844 2.187.317 2.313 1.258 2.969 1.781 2.969.211 2.203 1.672 4.707 2.407 5.125 0 1.574.117 1.258-.094 2.938a3.816 3.816 0 01-.969 1.53L19.094 31h1.812l5.313-2.125c-.485-.453-.856-.988-1.063-1.594-.105-1.68-.125-1.437-.125-2.906.735-.422 2.121-3.055 2.438-5.156.629 0 1.57-.63 1.781-2.938.105-1.261-.316-2.113-.844-2.218 1.89-2.415 1.575-11.97-5.25-11.97L22.094 0zm-10.25 30.063C7.473 32.367 0 33.438 0 41c0 0 0 1 1 1h16l2-7-.906-2.25-6.25-2.688zm16.406.156l-6.344 2.531L21 35l2 7h16c1.031 0 1-1 1-1 0-7.477-7.324-8.563-11.75-10.781z" fill="url(#kpaint0_linear_177_1781)"/><defs><linearGradient id="kpaint0_linear_177_1781" x1="45.128" y1="0" x2="-1.942" y2="39.717" gradientUnits="userSpaceOnUse"><stop offset=".25" stop-color="#3B768F"/><stop offset=".536" stop-color="#3EC6FF"/><stop offset=".818" stop-color="#3B768F"/></linearGradient></defs></svg><svg aria-hidden="true" data-prefix="fas" data-icon="phone-alt" class="lsvg-inline--fa lfa-phone-alt lfa-w-16" viewBox="0 0 512 512" id="phone-white" xmlns="http://www.w3.org/2000/svg"><path fill="#fff" d="M497.39 361.8l-112-48a24 24 0 00-28 6.9l-49.6 60.6A370.66 370.66 0 01130.6 204.11l60.6-49.6a23.94 23.94 0 006.9-28l-48-112A24.16 24.16 0 00122.6.61l-104 24A24 24 0 000 48c0 256.5 207.9 464 464 464a24 24 0 0023.4-18.6l24-104a24.29 24.29 0 00-14.01-27.6z"/></svg><svg viewBox="0 0 24 24" id="talk-white" xmlns="http://www.w3.org/2000/svg"><path d="M9.462 9.306l-.692 1.951h1.383z" data-original="#000000"/><path d="M12 1C5.373 1 0 5.208 0 10.399c0 3.356 2.246 6.301 5.625 7.963-1.299 4.45-1.333 4.47-1.113 4.599.276.161.634-.005 5.357-3.311.692.097 1.404.148 2.131.148 6.627 0 12-4.208 12-9.399S18.627 1 12 1zM6.058 13.023c0 .362-.311.657-.692.657s-.692-.295-.692-.657V8.937h-1.08c-.375 0-.679-.302-.679-.673s.303-.674.678-.674h3.545c.375 0 .679.302.679.673s-.305.674-.679.674h-1.08zm5.378.648c-.72 0-.587-.565-.919-1.195H8.406c-.329.625-.2 1.195-.919 1.195-.693.001-.815-.421-.604-1.071l1.656-4.33c.117-.33.471-.669.922-.679.452.01.807.349.923.679 1.093 3.39 2.654 5.402 1.052 5.401zm3.939-.092h-2.221c-1.159 0-.454-1.565-.663-5.301 0-.379.317-.688.707-.688s.707.308.707.688v4.04h1.471c.366 0 .663.283.663.63-.001.348-.298.631-.664.631zm5.419-.518a.684.684 0 01-.269.454c-.955.721-1.661-1.381-2.593-2.271l-.24.239v1.5a.69.69 0 01-.693.688.69.69 0 01-.692-.688V8.278c0-.379.31-.688.692-.688s.692.308.692.688v1.478c1.277-.958 1.985-2.67 2.792-1.869.792.786-.848 1.474-1.527 2.422 1.604 2.212 1.909 2.267 1.838 2.752z" data-original="#000000"/><script id="mspHTMLFormElementPrototypeScript">(function() { try { var sp_old_HTMLFormElementPrototype_submit = HTMLFormElement.prototype.submit; HTMLFormElement.prototype.submit = function() { try { var spEvent = document.createEvent(&apos;Event&apos;); spEvent.initEvent(&apos;sp_submit&apos;, true, true); this.dispatchEvent(spEvent); } catch(ErrorMessage) { console.error(&apos;spFormElementPrototype() Error sending &quot;sp_submit&quot; event from HTMLFormElement.prototype.submit: &apos; + ErrorMessage); } sp_old_HTMLFormElementPrototype_submit.apply(this); }; } catch(ErrorMessage) { console.error(&apos;spFormElementPrototype() Error attaching to HTMLFormElement.prototype.submit: &apos; + ErrorMessage); } try { if (typeof __doPostBack == &apos;function&apos;) { var sp_old__doPostBack = __doPostBack; __doPostBack = function(eventTarget, eventArgument) { try { var spEvent = document.createEvent(&apos;Event&apos;); spEvent.initEvent(&apos;sp_submit&apos;, true, true); window.dispatchEvent(spEvent); } catch(ErrorMessage) { console.error(&apos;spFormElementPrototype() Error sending &quot;sp_submit&quot; event from __doPostBack(): &apos; + ErrorMessage); } sp_old__doPostBack(eventTarget, eventArgument); }; } } catch(ErrorMessage) { console.error(&apos;spFormElementPrototype() Error attaching to __doPostBack(): &apos; + ErrorMessage); } })();</script></svg><svg viewBox="0 0 23 23" id="tel" xmlns="http://www.w3.org/2000/svg"><path d="M4.92.494c-.385-.031-.813.08-1.208.358-.347.242-1.097.837-1.798 1.511-.35.336-.684.686-.942 1.03-.26.343-.486.658-.472 1.115.013.41.054 1.623.927 3.482.873 1.858 2.567 4.406 5.87 7.711 3.304 3.305 5.853 4.998 7.71 5.871 1.858.873 3.073.914 3.483.928.455.014.77-.213 1.113-.473.344-.26.694-.591 1.03-.941a17.506 17.506 0 001.51-1.799c.552-.787.46-1.717-.155-2.148-.387-.272-3.944-2.639-4.479-2.967-.543-.332-1.168-.182-1.726.113-.44.233-1.63.914-1.969 1.11-.256-.163-1.226-.81-3.314-2.897C8.41 10.41 7.765 9.44 7.603 9.184c.195-.34.875-1.524 1.11-1.971.292-.557.457-1.188.107-1.734-.147-.233-.813-1.247-1.484-2.264a141.765 141.765 0 00-1.479-2.213V1A1.262 1.262 0 004.92.494zm-.092 1.022a.551.551 0 01.218.072c.08.111.782 1.162 1.454 2.178.671 1.017 1.357 2.06 1.476 2.25.02.029.047.361-.148.73v.002c-.221.42-1.25 2.219-1.25 2.219l-.143.252.147.25s.767 1.295 3.209 3.736c2.443 2.441 3.738 3.211 3.738 3.211l.25.146.252-.142s1.795-1.027 2.219-1.25c.369-.193.7-.168.74-.145a446.18 446.18 0 014.424 2.932c.008.006.216.322-.088.756h-.002a17.285 17.285 0 01-1.412 1.68 8.34 8.34 0 01-.91.835c-.274.206-.518.27-.479.272-.426-.014-1.365-.023-3.09-.834-1.724-.809-4.185-2.428-7.43-5.674-3.242-3.242-4.86-5.703-5.671-7.43-.809-1.724-.819-2.664-.832-3.087.002.039.066-.207.271-.48.205-.274.508-.599.834-.913a17.533 17.533 0 011.68-1.412v.002a.771.771 0 01.543-.156z"/><defs><linearGradient id="npaint0_linear_177_1727" x1="11.503" y1=".489" x2="11.503" y2="22.501" gradientUnits="userSpaceOnUse"><stop stop-color="#4ABCEC"/><stop offset="1" stop-color="#4A8BEC"/></linearGradient></defs></svg><svg fill="none" viewBox="0 0 139 140" id="telephones" xmlns="http://www.w3.org/2000/svg"><circle opacity=".05" cx="69.5" cy="69.5" r="69.5" fill="#fff"/><g filter="url(#ofilter0_d_2090_2)"><circle cx="69" cy="70" r="50" fill="url(#opaint0_linear_2090_2)" shape-rendering="crispEdges"/></g><path d="M70 51.8c-6.856 0-12.606 4.825-14.05 11.25.147-.016.3-.05.45-.05.41 0 .803.084 1.175.2 1.356-5.61 6.403-9.8 12.425-9.8 6.019 0 11.069 4.19 12.425 9.8.372-.116.763-.2 1.175-.2.15 0 .303.034.45.05C82.606 56.625 76.853 51.8 70 51.8zM56.4 64.6A2.405 2.405 0 0054 67v12c0 1.322 1.078 2.4 2.4 2.4 1.322 0 2.4-1.078 2.4-2.4V67c0-1.322-1.078-2.4-2.4-2.4zm27.2 0a2.405 2.405 0 00-2.4 2.4v12c0 1.322 1.078 2.4 2.4 2.4 1.322 0 2.4-1.078 2.4-2.4V67c0-1.322-1.078-2.4-2.4-2.4zm-31.2 2.5C50.956 68.26 50 70.434 50 73c0 2.566.956 4.74 2.4 5.9V67.1zm35.2 0v11.8c1.444-1.16 2.4-3.334 2.4-5.9 0-2.566-.956-4.74-2.4-5.9zm-5.125 15.725c-.706 2.172-2.54 3.375-5.275 3.375h-.875c.053.26.075.525.075.8s-.022.54-.075.8h.875c3.594 0 6.081-1.806 6.9-4.85-.169.022-.328.05-.5.05-.394 0-.766-.069-1.125-.175zM68.4 84.6A2.405 2.405 0 0066 87c0 1.322 1.078 2.4 2.4 2.4h4c1.322 0 2.4-1.078 2.4-2.4 0-1.322-1.078-2.4-2.4-2.4h-4z" fill="#fff"/><defs><linearGradient id="opaint0_linear_2090_2" x1="69" y1="20" x2="69" y2="120" gradientUnits="userSpaceOnUse"><stop stop-color="#03E1FF" stop-opacity=".66"/><stop offset="1" stop-color="#13CDC2"/></linearGradient><filter id="ofilter0_d_2090_2" x="6" y="14" width="126" height="126" filterUnits="userSpaceOnUse" color-interpolation-filters="sRGB"><feFlood flood-opacity="0" result="BackgroundImageFix"/><feColorMatrix in="SourceAlpha" values="0 0 0 0 0 0 0 0 0 0 0 0 0 0 0 0 0 0 127 0" result="hardAlpha"/><feMorphology radius="7" in="SourceAlpha" result="effect1_dropShadow_2090_2"/><feOffset dy="7"/><feGaussianBlur stdDeviation="10"/><feComposite in2="hardAlpha" operator="out"/><feColorMatrix values="0 0 0 0 0 0 0 0 0 0.88 0 0 0 0 1 0 0 0 1 0"/><feBlend in2="BackgroundImageFix" result="effect1_dropShadow_2090_2"/><feBlend in="SourceGraphic" in2="effect1_dropShadow_2090_2" result="shape"/></filter></defs></svg><svg aria-hidden="true" data-prefix="fab" data-icon="whatsapp-square" class="psvg-inline--fa pfa-whatsapp-square pfa-w-14" viewBox="0 0 448 512" id="whatsapp-white" xmlns="http://www.w3.org/2000/svg"><path fill="currentColor" d="M224 122.8c-72.7 0-131.8 59.1-131.9 131.8 0 24.9 7 49.2 20.2 70.1l3.1 5-13.3 48.6 49.9-13.1 4.8 2.9c20.2 12 43.4 18.4 67.1 18.4h.1c72.6 0 133.3-59.1 133.3-131.8 0-35.2-15.2-68.3-40.1-93.2-25-25-58-38.7-93.2-38.7zm77.5 188.4c-3.3 9.3-19.1 17.7-26.7 18.8-12.6 1.9-22.4.9-47.5-9.9-39.7-17.2-65.7-57.2-67.7-59.8-2-2.6-16.2-21.5-16.2-41s10.2-29.1 13.9-33.1c3.6-4 7.9-5 10.6-5 2.6 0 5.3 0 7.6.1 2.4.1 5.7-.9 8.9 6.8 3.3 7.9 11.2 27.4 12.2 29.4s1.7 4.3.3 6.9c-7.6 15.2-15.7 14.6-11.6 21.6 15.3 26.3 30.6 35.4 53.9 47.1 4 2 6.3 1.7 8.6-1 2.3-2.6 9.9-11.6 12.5-15.5 2.6-4 5.3-3.3 8.9-2 3.6 1.3 23.1 10.9 27.1 12.9s6.6 3 7.6 4.6c.9 1.9.9 9.9-2.4 19.1zM400 32H48C21.5 32 0 53.5 0 80v352c0 26.5 21.5 48 48 48h352c26.5 0 48-21.5 48-48V80c0-26.5-21.5-48-48-48zM223.9 413.2c-26.6 0-52.7-6.7-75.8-19.3L64 416l22.5-82.2c-13.9-24-21.2-51.3-21.2-79.3C65.4 167.1 136.5 96 223.9 96c42.4 0 82.2 16.5 112.2 46.5 29.9 30 47.9 69.8 47.9 112.2 0 87.4-72.7 158.5-160.1 158.5z"/></svg></svg>