<svg width="44" height="44" fill="none" xmlns="http://www.w3.org/2000/svg"><path d="M16 0v1h-4v43h4v-1h1v1h1v-1h1v1h1v-1h1v1h1v-1h1v1h1v-1h1v1h1v-1h1v1h4V1h-4V0H16zm-6 4.168L0 8.332V44h4v-2h1v2h1v-2h1v2h1v-2h1v2h1V4.168zM16 5h1v1h-1V5zm2 0h1v1h-1V5zm2 0h1v1h-1V5zm2 0h1v1h-1V5zm2 0h1v1h-1V5zm2 0h1v1h-1V5zM16 7h1v1h-1V7zm2 0h1v1h-1V7zm2 0h1v1h-1V7zm2 0h1v1h-1V7zm2 0h1v1h-1V7zm2 0h1v1h-1V7zM9 8.734V11H8V9.121l1-.387zM16 9h1v1h-1V9zm2 0h1v1h-1V9zm2 0h1v1h-1V9zm2 0h1v1h-1V9zm2 0h1v1h-1V9zm2 0h1v1h-1V9zm7 0v4h1v1h-1v1h1v1h-1v1h1v1h-1v1h1v1h-1v1h1v1h-1v1h1v1h-1v1h1v1h-1v1h1v1h-1v1h1v1h-1v1h1v1h-1v1h1v1h-1v1h1v1h-1v1h1v1h-1v1h1v1h-1v1h1v1h-1v1h1v1h1v-1h2v1h1v-1h2v1h4V9H33zM7 9.5V11H6V9.887L7 9.5zm-2 .766V11H4v-.348l1-.386zM16 11h1v1h-1v-1zm2 0h1v1h-1v-1zm2 0h1v1h-1v-1zm2 0h1v1h-1v-1zm2 0h1v1h-1v-1zm2 0h1v1h-1v-1zM4 12h1v2H4v-2zm2 0h1v2H6v-2zm2 0h1v2H8v-2zm8 1h1v1h-1v-1zm2 0h1v1h-1v-1zm2 0h1v1h-1v-1zm2 0h1v1h-1v-1zm2 0h1v1h-1v-1zm2 0h1v1h-1v-1zm9 0h2v1h-2v-1zm3 0h2v1h-2v-1zM4 15h1v2H4v-2zm2 0h1v2H6v-2zm2 0h1v2H8v-2zm8 0h1v1h-1v-1zm2 0h1v1h-1v-1zm2 0h1v1h-1v-1zm2 0h1v1h-1v-1zm2 0h1v1h-1v-1zm2 0h1v1h-1v-1zm9 0h2v1h-2v-1zm3 0h2v1h-2v-1zm-22 2h1v1h-1v-1zm2 0h1v1h-1v-1zm2 0h1v1h-1v-1zm2 0h1v1h-1v-1zm2 0h1v1h-1v-1zm2 0h1v1h-1v-1zm9 0h2v1h-2v-1zm3 0h2v1h-2v-1zM4 18h1v2H4v-2zm2 0h1v2H6v-2zm2 0h1v2H8v-2zm8 1h1v1h-1v-1zm2 0h1v1h-1v-1zm2 0h1v1h-1v-1zm2 0h1v1h-1v-1zm2 0h1v1h-1v-1zm2 0h1v1h-1v-1zm9 0h2v1h-2v-1zm3 0h2v1h-2v-1zM4 21h1v2H4v-2zm2 0h1v2H6v-2zm2 0h1v2H8v-2zm8 0h1v1h-1v-1zm2 0h1v1h-1v-1zm2 0h1v1h-1v-1zm2 0h1v1h-1v-1zm2 0h1v1h-1v-1zm2 0h1v1h-1v-1zm9 0h2v1h-2v-1zm3 0h2v1h-2v-1zm-22 2h1v1h-1v-1zm2 0h1v1h-1v-1zm2 0h1v1h-1v-1zm2 0h1v1h-1v-1zm2 0h1v1h-1v-1zm2 0h1v1h-1v-1zm9 0h2v1h-2v-1zm3 0h2v1h-2v-1zM4 24h1v2H4v-2zm2 0h1v2H6v-2zm2 0h1v2H8v-2zm8 1h1v1h-1v-1zm2 0h1v1h-1v-1zm2 0h1v1h-1v-1zm2 0h1v1h-1v-1zm2 0h1v1h-1v-1zm2 0h1v1h-1v-1zm9 0h2v1h-2v-1zm3 0h2v1h-2v-1zM4 27h1v2H4v-2zm2 0h1v2H6v-2zm2 0h1v2H8v-2zm8 0h1v1h-1v-1zm2 0h1v1h-1v-1zm2 0h1v1h-1v-1zm2 0h1v1h-1v-1zm2 0h1v1h-1v-1zm2 0h1v1h-1v-1zm9 0h2v1h-2v-1zm3 0h2v1h-2v-1zm-22 2h1v1h-1v-1zm2 0h1v1h-1v-1zm2 0h1v1h-1v-1zm2 0h1v1h-1v-1zm2 0h1v1h-1v-1zm2 0h1v1h-1v-1zm9 0h2v1h-2v-1zm3 0h2v1h-2v-1zM4 30h1v2H4v-2zm2 0h1v2H6v-2zm2 0h1v2H8v-2zm8 1h1v1h-1v-1zm2 0h1v1h-1v-1zm2 0h1v1h-1v-1zm2 0h1v1h-1v-1zm2 0h1v1h-1v-1zm2 0h1v1h-1v-1zm9 0h2v1h-2v-1zm3 0h2v1h-2v-1zM4 33h1v2H4v-2zm2 0h1v2H6v-2zm2 0h1v2H8v-2zm8 0h1v1h-1v-1zm2 0h1v1h-1v-1zm2 0h1v1h-1v-1zm2 0h1v1h-1v-1zm2 0h1v1h-1v-1zm2 0h1v1h-1v-1zm9 0h2v1h-2v-1zm3 0h2v1h-2v-1zm-22 2h1v1h-1v-1zm2 0h1v1h-1v-1zm2 0h1v1h-1v-1zm2 0h1v1h-1v-1zm2 0h1v1h-1v-1zm2 0h1v1h-1v-1zm9 0h2v1h-2v-1zm3 0h2v1h-2v-1zM4 36h1v2H4v-2zm2 0h1v2H6v-2zm2 0h1v2H8v-2zm8 1h1v1h-1v-1zm2 0h1v1h-1v-1zm2 0h1v1h-1v-1zm2 0h1v1h-1v-1zm2 0h1v1h-1v-1zm2 0h1v1h-1v-1zm9 0h2v1h-2v-1zm3 0h2v1h-2v-1zM4 39h1v2H4v-2zm2 0h1v2H6v-2zm2 0h1v2H8v-2zm8 0h1v1h-1v-1zm2 0h1v1h-1v-1zm2 0h1v1h-1v-1zm2 0h1v1h-1v-1zm2 0h1v1h-1v-1zm2 0h1v1h-1v-1zm9 0h2v1h-2v-1zm3 0h2v1h-2v-1zm-22 2h1v1h-1v-1zm2 0h1v1h-1v-1zm2 0h1v1h-1v-1zm2 0h1v1h-1v-1zm2 0h1v1h-1v-1zm2 0h1v1h-1v-1zm9 0h2v1h-2v-1zm3 0h2v1h-2v-1z" fill="url(#paint0_linear_177_1817)"/><defs><linearGradient id="paint0_linear_177_1817" x1="49.641" y1="0" x2="-.02" y2="43.998" gradientUnits="userSpaceOnUse"><stop offset=".25" stop-color="#3B768F"/><stop offset=".536" stop-color="#3EC6FF"/><stop offset=".818" stop-color="#3B768F"/></linearGradient></defs></svg>