<svg width="42" height="42" fill="none" xmlns="http://www.w3.org/2000/svg"><path d="M1 0C.45 0 0 .45 0 1v10c0 .55.45 1 1 1h40c.55 0 1-.45 1-1V1c0-.55-.45-1-1-1H1zm5 5c.55 0 1 .45 1 1s-.45 1-1 1-1-.45-1-1 .45-1 1-1zm4 0c.55 0 1 .45 1 1s-.45 1-1 1-1-.45-1-1 .45-1 1-1zm4 0c.55 0 1 .45 1 1s-.45 1-1 1-1-.45-1-1 .45-1 1-1zM0 15v26a1 1 0 001 1h40a1 1 0 001-1V15h-2v25H2V15H0zm6 0a1 1 0 00-1 1v20a1 1 0 001 1h13a1 1 0 001-1V16a1 1 0 00-1-1H6zm17 0v2h14v-2H23zm0 5v2h14v-2H23zm0 5v2h14v-2H23zm0 5v2h14v-2H23zm0 5v2h14v-2H23z" fill="url(#paint0_linear_177_1793)"/><defs><linearGradient id="paint0_linear_177_1793" x1="47.385" y1="0" x2="-.019" y2="41.998" gradientUnits="userSpaceOnUse"><stop offset=".25" stop-color="#3B768F"/><stop offset=".536" stop-color="#3EC6FF"/><stop offset=".818" stop-color="#3B768F"/></linearGradient></defs></svg>