<svg width="44" height="44" fill="none" xmlns="http://www.w3.org/2000/svg"><path d="M3 0C1.346 0 0 1.346 0 3v10c0 1.654 1.346 3 3 3h3v2a1 1 0 102 0v-2h5c1.654 0 3-1.346 3-3V9h5a1 1 0 100-2h-5V3c0-1.654-1.346-3-3-3H3zm28 0c-1.654 0-3 1.346-3 3v4h-3a1 1 0 100 2h3v4c0 1.654 1.346 3 3 3h4v5a1 1 0 102 0v-5h4c1.654 0 3-1.346 3-3V3c0-1.654-1.346-3-3-3H31zM6.984 20.986A1 1 0 006 22v6H3c-1.654 0-3 1.346-3 3v10c0 1.654 1.346 3 3 3h10c1.654 0 3-1.346 3-3v-4h3a1 1 0 100-2h-3v-4c0-1.654-1.346-3-3-3H8v-6a1 1 0 00-1.016-1.014zm29 3A1 1 0 0035 25v2h-4c-1.654 0-3 1.346-3 3v5h-5a1 1 0 100 2h5v3c0 1.654 1.346 3 3 3h10c1.654 0 3-1.346 3-3V30c0-1.654-1.346-3-3-3h-4v-2a1 1 0 00-1.016-1.014z" fill="url(#paint0_linear_177_1787)"/><defs><linearGradient id="paint0_linear_177_1787" x1="49.641" y1="0" x2="-.02" y2="43.998" gradientUnits="userSpaceOnUse"><stop offset=".25" stop-color="#3B768F"/><stop offset=".536" stop-color="#3EC6FF"/><stop offset=".818" stop-color="#3B768F"/></linearGradient></defs></svg>