<svg width="38" height="36" fill="none" xmlns="http://www.w3.org/2000/svg"><path d="M18.633 0C8.342 0 0 7.215 0 16.114c0 3.92 1.623 7.509 4.314 10.303.054.138 1.435 3.77-2.654 7.473a.733.733 0 00-.227.535c0 .194.076.38.21.518a.709.709 0 00.661.197c4.122-.25 7.648-2.34 9.8-3.951a21.141 21.141 0 006.53 1.038c10.29 0 18.633-7.214 18.633-16.113C37.267 7.214 28.925 0 18.633 0z" fill="url(#paint0_linear_1661_50)"/><path d="M12.34 14.944V19h-1.904v-4.056H9.044v-1.608h4.688v1.608H12.34zM13.18 19l2.233-5.664h2.024L19.645 19h-2.072l-.296-.832h-1.8l-.28.832H13.18zm3.673-2.288l-.456-1.4-.464 1.4h.92zM20.047 19v-5.664h1.92v4.032h1.88V19h-3.8zm7.775 0l-1.512-2.256h-.016V19h-1.856v-5.664h1.848v2.088h.016l1.512-2.088h2.24l-2.128 2.592L30.158 19h-2.336z" fill="#0B5B6D"/><defs><linearGradient id="paint0_linear_1661_50" x1="42.044" y1="0" x2="2.152" y2="37.464" gradientUnits="userSpaceOnUse"><stop offset=".25" stop-color="#3B768F"/><stop offset=".536" stop-color="#3EC6FF"/><stop offset=".818" stop-color="#3B768F"/></linearGradient></defs></svg>