<svg width="37" height="37" fill="none" xmlns="http://www.w3.org/2000/svg"><path d="M25.747 34h-.03c-4.954-.162-10.758-4.964-14.756-8.964C6.957 21.035 2.155 15.23 2 10.299 1.944 8.57 6.19 5.494 6.233 5.463c1.102-.767 2.325-.494 2.828.2.34.472 3.558 5.348 3.908 5.901.363.575.309 1.43-.144 2.287-.25.476-1.079 1.933-1.468 2.613.42.597 1.53 2.062 3.821 4.353 2.294 2.291 3.757 3.404 4.357 3.823a139.76 139.76 0 012.613-1.467c.845-.448 1.694-.505 2.274-.15.592.364 5.456 3.597 5.904 3.909.375.265.617.718.666 1.246.047.532-.118 1.096-.46 1.588-.029.041-3.07 4.235-4.785 4.235z" fill="url(#paint0_linear_1666_14)"/><defs><linearGradient id="paint0_linear_1666_14" x1="34.718" y1="5" x2="1.987" y2="33.998" gradientUnits="userSpaceOnUse"><stop offset=".25" stop-color="#3B768F"/><stop offset=".536" stop-color="#3EC6FF"/><stop offset=".818" stop-color="#3B768F"/></linearGradient></defs></svg>