<svg width="43" height="43" fill="none" xmlns="http://www.w3.org/2000/svg"><path d="M21.5 4.3C12 4.3 4.3 12.001 4.3 21.5c0 3.227.906 6.235 2.452 8.816L4.454 38.7l8.563-2.248A17.107 17.107 0 0021.5 38.7c9.498 0 17.2-7.701 17.2-17.2 0-9.499-7.702-17.2-17.2-17.2zm-5.887 9.177c.279 0 .566-.002.814.01.307.008.64.03.96.737.38.84 1.207 2.947 1.313 3.16.106.214.182.466.034.745-.14.287-.214.46-.42.714-.214.247-.448.553-.641.74-.214.213-.434.447-.188.873.247.425 1.103 1.821 2.369 2.948 1.627 1.453 3 1.9 3.426 2.113.427.214.675.18.921-.106.254-.28 1.066-1.239 1.352-1.666.28-.427.565-.353.952-.213.393.14 2.487 1.173 2.915 1.386.427.214.707.32.814.493.11.179.11 1.032-.243 2.027-.354.993-2.093 1.954-2.873 2.02-.787.074-1.52.355-5.114-1.06-4.335-1.707-7.068-6.147-7.282-6.433-.213-.28-1.735-2.308-1.735-4.401 0-2.1 1.1-3.128 1.486-3.555.393-.428.853-.532 1.14-.532z" fill="url(#paint0_linear_1661_48)"/><defs><linearGradient id="paint0_linear_1661_48" x1="43.11" y1="4.3" x2="4.284" y2="38.698" gradientUnits="userSpaceOnUse"><stop offset=".25" stop-color="#3B768F"/><stop offset=".536" stop-color="#3EC6FF"/><stop offset=".818" stop-color="#3B768F"/></linearGradient></defs></svg>